<?xml version="1.0" encoding="UTF-8" standalone="no"?>
<svg
   width="288"
   height="64"
   viewBox="0 0 288 64"
   fill="none"
   version="1.1"
   id="svg22"
   sodipodi:docname="coconuts_transparent.svg"
   inkscape:version="1.1.2 (0a00cf5339, 2022-02-04, custom)"
   xmlns:inkscape="http://www.inkscape.org/namespaces/inkscape"
   xmlns:sodipodi="http://sodipodi.sourceforge.net/DTD/sodipodi-0.dtd"
   xmlns="http://www.w3.org/2000/svg"
   xmlns:svg="http://www.w3.org/2000/svg">
  <defs
     id="defs26" />
  <sodipodi:namedview
     id="namedview24"
     pagecolor="#ffffff"
     bordercolor="#999999"
     borderopacity="1"
     inkscape:pageshadow="0"
     inkscape:pageopacity="0"
     inkscape:pagecheckerboard="0"
     showgrid="true"
     inkscape:zoom="2.0659722"
     inkscape:cx="87.610084"
     inkscape:cy="35.334454"
     inkscape:window-width="1366"
     inkscape:window-height="738"
     inkscape:window-x="0"
     inkscape:window-y="0"
     inkscape:window-maximized="1"
     inkscape:current-layer="svg22">
    <inkscape:grid
       type="xygrid"
       id="grid843" />
  </sodipodi:namedview>
  <circle
     cx="32"
     cy="32"
     r="32"
     fill="#F1F1F1"
     id="circle4" />
  <path
     d="M49.005 18.5988L52.5094 18.24C52.5094 18.24 53.3756 21.0662 54.1062 22.6325C54.8325 24.2031 56.1231 25.7125 56.1231 25.7125C56.1231 25.7125 55.7862 31.4831 54.9462 37.4244C54.1062 43.3656 51.8575 45.4131 51.1444 46.4588C50.2081 47.8281 48.3269 49.7006 47.5437 51.2144C46.7606 52.7281 46.2094 53.3931 45.8725 53.45C45.5356 53.5069 42.0706 54.4956 40.0537 54.8894C38.0369 55.2831 33.3556 56.4031 33.3556 56.4031C33.3556 56.4031 29.6237 55.5806 28.7269 55.4669C27.83 55.3531 26.6531 55.7469 26.3731 55.5238C26.0931 55.3006 23.5731 53.45 21.2762 52.4438C18.9794 51.4375 17.1287 51.21 16.9056 50.7638C16.6825 50.3175 16.2887 48.97 15.5056 47.9069C14.7225 46.8438 13.9656 46.1306 13.9656 46.1306L17.19 36.8688L49.005 18.5988ZM11.1656 24.7631C11.1656 24.7631 11.6337 23.2669 8.54499 21.6744C6.60249 20.6725 4.79999 20.9263 4.79999 21.6744C4.79999 22.4225 6.11249 21.9544 7.60874 23.8269C9.10499 25.6994 10.4175 28.2281 10.4175 28.2281L11.1656 24.7631ZM13.9175 18.8044C13.9175 18.8044 14.5344 17.6144 14.4906 16.5906C14.4512 15.5669 13.6725 14.7881 14.04 14.3331C14.4075 13.8825 15.8031 15.0725 16.1312 16.1356C16.5337 17.4525 16.4987 18.065 16.4987 18.065L14.3681 19.8675L13.9175 18.8044ZM36.8425 8.93C36.8425 8.93 35.9412 8.27375 35.9806 6.26563C36.0069 4.95313 36.2694 3.92938 36.72 3.96875C37.1706 4.00813 37.2931 4.91375 37.7875 6.38813C38.2775 7.8625 39.7562 9.42438 39.7562 9.42438L36.8425 8.93ZM48.1606 13.3575C48.1606 13.3575 48.0381 10.5269 48.3225 9.0525C48.55 7.89313 49.2675 7.25 49.6744 7.53437C49.9281 7.71375 49.5519 8.06812 49.7969 10.4481C49.9237 11.6819 50.5756 16.2713 50.5756 16.2713L48.1606 13.3575ZM9.84874 39.2488C9.84874 39.2488 9.19249 38.7588 7.18436 38.1419C6.16499 37.8313 3.73249 37.5163 3.78061 38.1419C3.81999 38.6756 4.59874 38.6756 7.06186 39.9444C9.52061 41.2175 11.4894 43.3088 11.4894 43.1863C11.4894 43.0638 9.84874 39.2488 9.84874 39.2488Z"
     fill="#8E4D2F"
     id="path6" />
  <path
     d="M8.25628 32.1C8.25628 32.9619 6.82128 35.1363 6.86066 35.7094C6.90003 36.2825 8.25628 38.5794 8.66316 39.2357C9.07441 39.8919 9.40253 41.4494 9.40253 41.4494C9.40253 41.4494 10.7544 43.3788 11.7825 44.3194C12.8063 45.2644 13.9569 46.1219 13.9569 46.1219C13.9569 46.1219 15.475 45.96 17.4832 46.2838C19.4913 46.6119 18.8044 47.0232 21.7182 47.1894C24.6319 47.3557 25.2707 46.9007 28.7532 46.4063C32.2357 45.9119 36.1513 45.2644 36.1513 45.2644C36.1513 45.2644 41.5107 42.2544 46.0738 37.6869C48.7775 34.9832 51.0919 29.8338 51.7875 28.7269C52.4832 27.62 52.89 25.8875 52.9294 25.4807C52.9688 25.0694 52.2075 22.0419 52.2075 20.7294C52.2075 19.4169 52.5663 18.7388 52.505 18.2357C52.4438 17.7019 49.7619 13.8082 48.6069 12.535C47.4607 11.2707 44.4244 8.55815 43.7244 8.84253L43.0288 9.13128C43.0288 9.13128 39.9532 7.85815 37.4507 7.85815C34.9482 7.85815 33.9638 8.3044 32.4894 8.34815C31.1769 8.38753 31.505 7.9369 30.5207 7.98065C29.7025 8.01565 26.955 9.48565 25.205 10.3825C23.6563 11.1788 20.4319 12.3688 19.2419 13.3925C18.0519 14.4163 15.4707 16.7963 15.2213 17.2075C14.9763 17.6188 14.7707 18.4807 14.7707 18.4807C14.7707 18.4807 12.3513 18.1132 11.8569 18.5638C11.3669 19.0144 10.2557 23.4463 9.59941 24.8375C8.94316 26.2288 7.05753 30.3719 7.34191 30.7C7.63941 31.0325 8.25628 32.1 8.25628 32.1Z"
     fill="#532D1D"
     id="path8" />
  <path
     d="M14.3069 40.99C14.3069 40.99 12.9988 39.4413 12.2375 37.6956C11.3319 35.6306 11.0125 32.4019 11.3975 30.2713C11.8 28.0619 11.9575 26.9375 13.0775 24.2688C13.9438 22.2038 15.1425 20.655 16.6913 19.2331C17.2556 18.7169 18.0563 18.7956 19.71 17.2119C21.3638 15.6281 24.6538 12.4869 29.9869 11.5506C35.32 10.6144 37.0525 11.1044 39.4369 11.4719C41.1256 11.73 41.8913 12.815 43.0463 13.2438C44.1969 13.6769 45.2469 13.8563 46.5113 14.9063C47.4038 15.6456 48.1431 16.595 48.3619 17.6756C48.5763 18.7563 48.1038 19.3425 48.0644 19.71C48.0031 20.3269 49.4163 20.7775 49.1756 24.05C48.9613 27.0031 47.1588 33.6313 38.5138 39.4675C29.8688 45.3038 19.4256 43.5756 19.4256 43.5756C19.4256 43.5756 19.0844 42.0313 17.6319 41.1475C15.7419 40.01 14.3069 40.99 14.3069 40.99Z"
     fill="#FEFFFF"
     id="path10" />
  <path
     d="M20.3225 19.8763C13.7075 25.205 14.3287 31.3781 14.3287 31.3781C14.3287 31.3781 11.1656 32.3144 11.4412 33.7056C11.6993 35.04 14.7618 34.0425 14.7618 34.0425L15.1206 35.5563C15.1206 35.5563 11.6906 36.6456 12.5262 38.1813C13.13 39.2925 18.4981 36.6325 18.4981 36.6325L43.7943 22.3919C43.7943 22.3919 48.8562 19.6138 47.7537 17.9863C46.9006 16.7263 45.0762 18.275 45.0762 18.275C45.0762 18.275 44.5512 17.6625 43.7462 17.1638C43.0112 16.7088 42.2368 16.245 42.2368 16.245C42.2368 16.245 44.3675 14.4469 43.1425 13.5106C41.9175 12.5744 40.115 15.1688 40.115 15.1688C40.115 15.1688 37.3237 14.285 35.0881 14.3594C32.8568 14.4294 30.4593 14.8756 30.4593 14.8756C30.4593 14.8756 30.3281 11.5725 28.6087 12.0231C27.0556 12.43 27.9393 15.5975 27.9393 15.5975C27.9393 15.5975 24.505 16.5075 20.3225 19.8763ZM22.9037 37.2144L20.7993 38.155C20.7993 38.155 19.3337 42.1494 20.8475 42.9413C22.3612 43.7331 23.9406 38.3256 23.9406 38.3256L22.9037 37.2144Z"
     fill="#E0E0E0"
     id="path12" />
  <path
     d="M35.1494 33.6838L33.1807 36.195C33.1807 36.195 34.3575 38.5094 34.8607 39.3757C35.3638 40.2419 35.8713 40.6707 36.6632 40.2419C37.455 39.8088 37.5294 39.0913 37.0219 38.0807C36.5144 37.07 35.1494 33.6838 35.1494 33.6838Z"
     fill="#E1E1E1"
     id="path14" />
  <path
     d="M24.4131 19.9244C17.0981 24.5138 14.9062 32.17 17.5006 36.4225C20.095 40.675 31.6712 39.3888 37.0569 35.4994C42.9062 31.2775 45.8331 26.2069 44.6081 21.7619C43.9387 19.3338 41.62 18.1613 39.1612 17.3694C35.1756 16.0919 29.3131 16.8531 24.4131 19.9244Z"
     fill="#B1B1B1"
     id="path16" />
  <path
     d="M42.6394 46.17C41.8213 46.66 42.6394 47.9725 43.2169 49.4119C43.7944 50.8513 44.2013 52.26 45.0894 51.7175C45.925 51.2056 44.945 49.1975 44.5119 48.2613C44.0788 47.325 43.5363 45.6363 42.6394 46.17ZM48.8344 38.5357C47.7494 38.5357 47.8982 39.7607 47.5394 41.8475C47.1807 43.9388 46.9007 44.8663 48.0425 45.015C48.7907 45.1156 48.7907 43.5581 49.1232 41.4844C49.3638 39.9881 49.7007 38.5357 48.8344 38.5357ZM52.7238 33.6925C52.0063 33.7319 52.1638 35.4119 52.1857 37.6388C52.2032 39.2969 51.9538 41.3663 52.9469 41.2744C53.7694 41.1956 53.625 38.61 53.66 37.0219C53.7169 34.7119 53.8613 33.6313 52.7238 33.6925ZM32.8438 49.7706C32.4282 50.335 33.0582 51.2625 34.5719 52.365C35.9588 53.3756 37.1313 54.3338 37.6694 53.7344C38.4525 52.8638 37.2188 52.1244 35.8669 50.9956C34.5019 49.8538 33.4825 48.9044 32.8438 49.7706ZM22.1119 49.9894C21.6175 50.7813 22.9125 51.6869 24.4175 52.9425C25.7125 54.0231 27.0644 55.3706 27.8038 54.5263C28.2894 53.9706 27.095 52.7588 25.4982 51.4288C24.1988 50.3482 22.9169 48.69 22.1119 49.9894Z"
     fill="#532D1D"
     id="path18" />
  <path
     d="M82.26 21.032C80.2667 21.032 78.9633 22.1973 78.35 24.528C77.7367 26.828 77.43 29.634 77.43 32.946C77.43 36.5033 77.89 39.3247 78.81 41.41C79.7607 43.4953 81.4933 44.538 84.008 44.538C85.5107 44.538 86.7987 44.1547 87.872 43.388C88.9453 42.6213 89.7887 41.5173 90.402 40.076C91.598 40.6587 92.196 41.6707 92.196 43.112C92.196 44.584 91.7207 45.8413 90.77 46.884C89.8193 47.9267 88.5927 48.7087 87.09 49.23C85.618 49.7513 84.0693 50.012 82.444 50.012C77.8747 50.012 74.532 48.5553 72.416 45.642C70.3 42.7287 69.242 38.8493 69.242 34.004C69.242 28.944 70.346 24.9727 72.554 22.09C74.762 19.1767 78.166 17.72 82.766 17.72C85.5567 17.72 87.8567 18.226 89.666 19.238C91.4753 20.25 92.38 21.8907 92.38 24.16C92.38 25.5093 91.9353 26.598 91.046 27.426C90.1873 28.254 89.0833 28.668 87.734 28.668C86.722 28.668 85.9247 28.4993 85.342 28.162C85.5567 27.1807 85.664 26.368 85.664 25.724C85.664 22.596 84.5293 21.032 82.26 21.032ZM107.689 17.72C112.228 17.72 115.555 19.1 117.671 21.86C119.787 24.62 120.845 28.4687 120.845 33.406C120.845 38.466 119.772 42.4987 117.625 45.504C115.509 48.5093 112.197 50.012 107.689 50.012C103.242 50.012 99.9303 48.5707 97.753 45.688C95.6063 42.8053 94.533 38.9107 94.533 34.004C94.533 29.0053 95.591 25.0493 97.707 22.136C99.8537 19.192 103.181 17.72 107.689 17.72ZM107.689 46.7C109.744 46.7 111.078 45.4887 111.691 43.066C112.304 40.6127 112.611 37.4847 112.611 33.682C112.611 30.0327 112.289 27.012 111.645 24.62C111.032 22.228 109.713 21.032 107.689 21.032C105.665 21.032 104.331 22.2433 103.687 24.666C103.043 27.058 102.721 30.0633 102.721 33.682C102.721 37.454 103.028 40.5667 103.641 43.02C104.285 45.4733 105.634 46.7 107.689 46.7ZM136.346 21.032C134.353 21.032 133.049 22.1973 132.436 24.528C131.823 26.828 131.516 29.634 131.516 32.946C131.516 36.5033 131.976 39.3247 132.896 41.41C133.847 43.4953 135.579 44.538 138.094 44.538C139.597 44.538 140.885 44.1547 141.958 43.388C143.031 42.6213 143.875 41.5173 144.488 40.076C145.684 40.6587 146.282 41.6707 146.282 43.112C146.282 44.584 145.807 45.8413 144.856 46.884C143.905 47.9267 142.679 48.7087 141.176 49.23C139.704 49.7513 138.155 50.012 136.53 50.012C131.961 50.012 128.618 48.5553 126.502 45.642C124.386 42.7287 123.328 38.8493 123.328 34.004C123.328 28.944 124.432 24.9727 126.64 22.09C128.848 19.1767 132.252 17.72 136.852 17.72C139.643 17.72 141.943 18.226 143.752 19.238C145.561 20.25 146.466 21.8907 146.466 24.16C146.466 25.5093 146.021 26.598 145.132 27.426C144.273 28.254 143.169 28.668 141.82 28.668C140.808 28.668 140.011 28.4993 139.428 28.162C139.643 27.1807 139.75 26.368 139.75 25.724C139.75 22.596 138.615 21.032 136.346 21.032ZM161.775 17.72C166.314 17.72 169.641 19.1 171.757 21.86C173.873 24.62 174.931 28.4687 174.931 33.406C174.931 38.466 173.858 42.4987 171.711 45.504C169.595 48.5093 166.283 50.012 161.775 50.012C157.328 50.012 154.016 48.5707 151.839 45.688C149.692 42.8053 148.619 38.9107 148.619 34.004C148.619 29.0053 149.677 25.0493 151.793 22.136C153.94 19.192 157.267 17.72 161.775 17.72ZM161.775 46.7C163.83 46.7 165.164 45.4887 165.777 43.066C166.39 40.6127 166.697 37.4847 166.697 33.682C166.697 30.0327 166.375 27.012 165.731 24.62C165.118 22.228 163.799 21.032 161.775 21.032C159.751 21.032 158.417 22.2433 157.773 24.666C157.129 27.058 156.807 30.0633 156.807 33.682C156.807 37.454 157.114 40.5667 157.727 43.02C158.371 45.4733 159.72 46.7 161.775 46.7ZM194.296 49L183.486 27.334V49H178.702V18.64H186.522L197.332 40.306V18.64H202.07V49H194.296ZM228.987 36.396C228.987 39.4627 228.665 41.9927 228.021 43.986C227.408 45.9487 226.304 47.4513 224.709 48.494C223.145 49.506 220.968 50.012 218.177 50.012C214.099 50.012 211.185 49.046 209.437 47.114C207.689 45.182 206.815 42.1153 206.815 37.914V18.64H214.451V37.408C214.451 39.4627 214.543 41.1187 214.727 42.376C214.911 43.6333 215.325 44.63 215.969 45.366C216.613 46.102 217.564 46.47 218.821 46.47C220.109 46.47 221.06 46.0867 221.673 45.32C222.317 44.5227 222.731 43.4647 222.915 42.146C223.099 40.8273 223.191 39.0793 223.191 36.902V18.64H228.987V36.396ZM252.406 18.64L252.084 22.274H245.506V49H237.87V22.274H231.062V18.64H252.406ZM264.555 17.72C267.223 17.72 269.477 18.1953 271.317 19.146C273.157 20.0967 274.077 21.6453 274.077 23.792C274.077 25.1413 273.647 26.184 272.789 26.92C271.93 27.656 270.811 28.024 269.431 28.024C268.48 28.024 267.683 27.8553 267.039 27.518C267.253 26.7513 267.361 25.862 267.361 24.85C267.361 23.6233 267.085 22.6727 266.533 21.998C266.011 21.2927 265.168 20.94 264.003 20.94C262.991 20.94 262.178 21.216 261.565 21.768C260.982 22.32 260.691 23.102 260.691 24.114C260.691 25.1567 260.967 26.092 261.519 26.92C262.071 27.7173 262.745 28.4073 263.543 28.99C264.371 29.5727 265.49 30.278 266.901 31.106C268.557 32.0873 269.891 32.9613 270.903 33.728C271.945 34.4947 272.819 35.4607 273.525 36.626C274.261 37.7913 274.629 39.1867 274.629 40.812C274.629 43.848 273.555 46.148 271.409 47.712C269.262 49.2453 266.471 50.012 263.037 50.012C260.185 50.012 257.777 49.506 255.815 48.494C253.883 47.482 252.917 45.8413 252.917 43.572C252.917 42.2227 253.346 41.134 254.205 40.306C255.094 39.478 256.213 39.064 257.563 39.064C258.575 39.064 259.372 39.2327 259.955 39.57C259.74 40.5207 259.633 41.3333 259.633 42.008C259.633 45.1973 260.951 46.792 263.589 46.792C264.815 46.792 265.812 46.4547 266.579 45.78C267.345 45.0747 267.729 44.1393 267.729 42.974C267.729 41.9313 267.453 41.0113 266.901 40.214C266.349 39.386 265.659 38.6807 264.831 38.098C264.003 37.4847 262.899 36.764 261.519 35.936C259.863 34.9547 258.513 34.0807 257.471 33.314C256.459 32.5473 255.585 31.5813 254.849 30.416C254.143 29.2507 253.791 27.8707 253.791 26.276C253.791 24.4667 254.281 22.918 255.263 21.63C256.244 20.342 257.547 19.376 259.173 18.732C260.829 18.0573 262.623 17.72 264.555 17.72Z"
     fill="#4E4E4E"
     id="path20" />
</svg>
