<svg width="183" height="186" viewBox="0 0 183 186" fill="none" xmlns="http://www.w3.org/2000/svg">
<g clip-path="url(#clip0_39_99)" filter="url(#filter0_d_39_99)">
<g filter="url(#filter1_d_39_99)">
<path d="M153.606 54.2423L165.057 53.07C165.057 53.07 167.888 62.3058 170.276 67.424C172.649 72.5566 176.867 77.489 176.867 77.489C176.867 77.489 175.766 96.3466 173.021 115.762C170.276 135.177 162.927 141.868 160.597 145.285C157.537 149.76 151.39 155.879 148.83 160.826C146.271 165.772 144.47 167.945 143.369 168.131C142.268 168.317 130.945 171.548 124.354 172.835C117.763 174.122 102.466 177.782 102.466 177.782C102.466 177.782 90.2705 175.094 87.3396 174.722C84.4088 174.35 80.5629 175.637 79.6479 174.908C78.7329 174.179 70.4979 168.131 62.992 164.843C55.4862 161.555 49.4386 160.811 48.7095 159.353C47.9803 157.895 46.6936 153.491 44.1345 150.017C41.5753 146.543 39.102 144.213 39.102 144.213L49.6388 113.946L153.606 54.2423ZM29.952 74.3866C29.952 74.3866 31.4817 69.4971 21.3881 64.293C15.0403 61.019 9.15 61.8483 9.15 64.293C9.15 66.7378 13.4391 65.208 18.3286 71.3271C23.2181 77.4462 27.5072 85.7097 27.5072 85.7097L29.952 74.3866ZM38.9447 54.9143C38.9447 54.9143 40.9605 51.0255 40.8176 47.6801C40.6889 44.3346 38.1441 41.7898 39.345 40.3029C40.5459 38.8303 45.1066 42.7191 46.1789 46.1932C47.4942 50.4966 47.3798 52.4981 47.3798 52.4981L40.4173 58.3884L38.9447 54.9143ZM113.86 22.6462C113.86 22.6462 110.915 20.5017 111.044 13.9394C111.13 9.65038 111.987 6.30491 113.46 6.43358C114.933 6.56225 115.333 9.52171 116.948 14.3398C118.55 19.1578 123.382 24.2618 123.382 24.2618L113.86 22.6462ZM150.846 37.1147C150.846 37.1147 150.446 27.8646 151.375 23.0466C152.119 19.2579 154.463 17.1562 155.793 18.0855C156.622 18.6717 155.393 19.8298 156.193 27.6073C156.608 31.639 158.738 46.6364 158.738 46.6364L150.846 37.1147ZM25.6486 121.724C25.6486 121.724 23.5041 120.122 16.9418 118.106C13.6106 117.091 5.66156 116.062 5.81883 118.106C5.9475 119.851 8.49234 119.851 16.5415 123.997C24.5763 128.157 31.0099 134.991 31.0099 134.591C31.0099 134.19 25.6486 121.724 25.6486 121.724Z" fill="#8E4D2F"/>
</g>
<path d="M20.4445 98.3625C20.4445 101.179 15.7552 108.285 15.8838 110.157C16.0125 112.03 20.4445 119.536 21.7741 121.681C23.118 123.825 24.1903 128.915 24.1903 128.915C24.1903 128.915 28.608 135.22 31.9678 138.294C35.3133 141.382 39.0734 144.184 39.0734 144.184C39.0734 144.184 44.0344 143.655 50.5966 144.713C57.1589 145.785 54.9143 147.129 64.436 147.672C73.9577 148.216 76.0451 146.729 87.4254 145.113C98.8057 143.498 111.601 141.382 111.601 141.382C111.601 141.382 129.115 131.546 144.027 116.62C152.862 107.784 160.425 90.9567 162.698 87.3396C164.972 83.7225 166.301 78.0609 166.43 76.7313C166.559 75.3874 164.071 65.494 164.071 61.2049C164.071 56.9159 165.243 54.6998 165.043 53.0557C164.843 51.3115 156.079 38.5873 152.305 34.4269C148.559 30.2951 138.637 21.431 136.349 22.3603L134.076 23.3039C134.076 23.3039 124.025 19.1435 115.848 19.1435C107.67 19.1435 104.453 20.6018 99.6349 20.7448C95.3459 20.8734 96.4181 19.4009 93.2013 19.5438C90.5278 19.6582 81.5494 24.462 75.8306 27.3928C70.7695 29.9949 60.2327 33.8836 56.344 37.2291C52.4552 40.5745 44.0201 48.352 43.2052 49.6959C42.4045 51.0398 41.7326 53.8563 41.7326 53.8563C41.7326 53.8563 33.8264 52.6554 32.2109 54.128C30.6096 55.6006 26.9782 70.0833 24.8337 74.6297C22.6891 79.1761 16.5272 92.7152 17.4565 93.7875C18.4287 94.8741 20.4445 98.3625 20.4445 98.3625Z" fill="#532D1D"/>
<path d="M40.2171 127.414C40.2171 127.414 35.9423 122.353 33.4547 116.648C30.4952 109.9 29.4516 99.349 30.7097 92.3864C32.025 85.1665 32.5397 81.4922 36.1997 72.7711C39.0305 66.023 42.9478 60.9619 48.0089 56.3154C49.8532 54.6284 52.4695 54.8857 57.8737 49.7102C63.278 44.5348 74.0292 34.2696 91.4571 31.2101C108.885 28.1505 114.547 29.7518 122.338 30.9527C127.857 31.7962 130.359 35.3419 134.133 36.743C137.893 38.1584 141.325 38.7445 145.456 42.1758C148.373 44.5919 150.789 47.6944 151.504 51.2257C152.205 54.757 150.66 56.6728 150.532 57.8737C150.332 59.8896 154.95 61.3622 154.163 72.0562C153.463 81.7066 147.572 103.366 119.322 122.438C91.0711 141.51 56.9445 135.863 56.9445 135.863C56.9445 135.863 55.8293 130.816 51.0827 127.928C44.9065 124.211 40.2171 127.414 40.2171 127.414Z" fill="#FEFFFF"/>
<path d="M59.8753 58.417C38.2584 75.8306 40.2886 96.0035 40.2886 96.0035C40.2886 96.0035 29.952 99.063 30.8527 103.609C31.6962 107.97 41.704 104.71 41.704 104.71L42.8763 109.657C42.8763 109.657 31.6676 113.217 34.3983 118.235C36.3712 121.867 53.9135 113.174 53.9135 113.174L136.578 66.6377C136.578 66.6377 153.12 57.5592 149.517 52.2408C146.729 48.1233 140.767 53.1844 140.767 53.1844C140.767 53.1844 139.051 51.1828 136.421 49.553C134.019 48.0661 131.488 46.5506 131.488 46.5506C131.488 46.5506 138.451 40.6746 134.448 37.6151C130.445 34.5555 124.554 43.0336 124.554 43.0336C124.554 43.0336 115.433 40.1456 108.127 40.3887C100.836 40.6174 93.0012 42.0757 93.0012 42.0757C93.0012 42.0757 92.5723 31.2816 86.9536 32.7541C81.8782 34.0837 84.7662 44.4347 84.7662 44.4347C84.7662 44.4347 73.5431 47.4084 59.8753 58.417ZM68.3105 115.076L61.4337 118.149C61.4337 118.149 56.6442 131.202 61.5909 133.79C66.5377 136.378 71.6988 118.707 71.6988 118.707L68.3105 115.076Z" fill="#E0E0E0"/>
<path d="M108.327 103.538L101.894 111.744C101.894 111.744 105.74 119.307 107.384 122.138C109.028 124.969 110.686 126.37 113.274 124.969C115.862 123.554 116.105 121.209 114.446 117.906C112.788 114.604 108.327 103.538 108.327 103.538Z" fill="#E1E1E1"/>
<path d="M73.2429 58.5743C49.3385 73.5717 42.1758 98.5912 50.6538 112.488C59.1319 126.384 96.9614 122.181 114.561 109.471C133.676 95.6747 143.24 79.1046 139.237 64.579C137.05 56.6442 129.473 52.8126 121.438 50.2249C108.413 46.0502 89.2554 48.5379 73.2429 58.5743Z" fill="#B1B1B1"/>
<path d="M132.804 144.341C130.13 145.943 132.804 150.232 134.691 154.935C136.578 159.639 137.908 164.243 140.81 162.47C143.541 160.797 140.338 154.235 138.923 151.175C137.507 148.116 135.735 142.597 132.804 144.341ZM153.048 119.393C149.502 119.393 149.989 123.396 148.816 130.216C147.644 137.05 146.729 140.081 150.46 140.567C152.905 140.896 152.905 135.806 153.992 129.029C154.778 124.14 155.879 119.393 153.048 119.393ZM165.758 103.567C163.413 103.695 163.928 109.185 163.999 116.462C164.057 121.881 163.242 128.643 166.487 128.343C169.175 128.086 168.703 119.636 168.818 114.447C169.003 106.898 169.475 103.366 165.758 103.567ZM100.793 156.108C99.4348 157.952 101.494 160.983 106.44 164.586C110.972 167.888 114.804 171.019 116.562 169.061C119.122 166.215 115.09 163.799 110.672 160.111C106.211 156.379 102.88 153.277 100.793 156.108ZM65.7227 156.822C64.1072 159.41 68.3391 162.37 73.2572 166.473C77.4891 170.004 81.9068 174.408 84.323 171.648C85.9099 169.833 82.0069 165.872 76.7885 161.526C72.5423 157.995 68.3534 152.576 65.7227 156.822Z" fill="#532D1D"/>
</g>
<defs>
<filter id="filter0_d_39_99" x="-4" y="0" width="191" height="191" filterUnits="userSpaceOnUse" color-interpolation-filters="sRGB">
<feFlood flood-opacity="0" result="BackgroundImageFix"/>
<feColorMatrix in="SourceAlpha" type="matrix" values="0 0 0 0 0 0 0 0 0 0 0 0 0 0 0 0 0 0 127 0" result="hardAlpha"/>
<feOffset dy="4"/>
<feGaussianBlur stdDeviation="2"/>
<feComposite in2="hardAlpha" operator="out"/>
<feColorMatrix type="matrix" values="0 0 0 0 0 0 0 0 0 0 0 0 0 0 0 0 0 0 0.25 0"/>
<feBlend mode="normal" in2="BackgroundImageFix" result="effect1_dropShadow_39_99"/>
<feBlend mode="normal" in="SourceGraphic" in2="effect1_dropShadow_39_99" result="shape"/>
</filter>
<filter id="filter1_d_39_99" x="1.81653" y="6.42999" width="179.05" height="179.352" filterUnits="userSpaceOnUse" color-interpolation-filters="sRGB">
<feFlood flood-opacity="0" result="BackgroundImageFix"/>
<feColorMatrix in="SourceAlpha" type="matrix" values="0 0 0 0 0 0 0 0 0 0 0 0 0 0 0 0 0 0 127 0" result="hardAlpha"/>
<feOffset dy="4"/>
<feGaussianBlur stdDeviation="2"/>
<feComposite in2="hardAlpha" operator="out"/>
<feColorMatrix type="matrix" values="0 0 0 0 0 0 0 0 0 0 0 0 0 0 0 0 0 0 0.25 0"/>
<feBlend mode="normal" in2="BackgroundImageFix" result="effect1_dropShadow_39_99"/>
<feBlend mode="normal" in="SourceGraphic" in2="effect1_dropShadow_39_99" result="shape"/>
</filter>
<clipPath id="clip0_39_99">
<rect width="183" height="183" fill="white"/>
</clipPath>
</defs>
</svg>
