<svg width="64" height="64" viewBox="0 0 64 64" fill="none" xmlns="http://www.w3.org/2000/svg">
<circle cx="32" cy="32" r="32" fill="#F1F1F1"/>
<path d="M49.005 18.5988L52.5094 18.24C52.5094 18.24 53.3756 21.0662 54.1062 22.6325C54.8325 24.2031 56.1231 25.7125 56.1231 25.7125C56.1231 25.7125 55.7862 31.4831 54.9462 37.4244C54.1062 43.3656 51.8575 45.4131 51.1444 46.4588C50.2081 47.8281 48.3269 49.7006 47.5437 51.2144C46.7606 52.7281 46.2094 53.3931 45.8725 53.45C45.5356 53.5069 42.0706 54.4956 40.0537 54.8894C38.0369 55.2831 33.3556 56.4031 33.3556 56.4031C33.3556 56.4031 29.6237 55.5806 28.7269 55.4669C27.83 55.3531 26.6531 55.7469 26.3731 55.5238C26.0931 55.3006 23.5731 53.45 21.2762 52.4438C18.9794 51.4375 17.1287 51.21 16.9056 50.7638C16.6825 50.3175 16.2887 48.97 15.5056 47.9069C14.7225 46.8438 13.9656 46.1306 13.9656 46.1306L17.19 36.8688L49.005 18.5988ZM11.1656 24.7631C11.1656 24.7631 11.6337 23.2669 8.54499 21.6744C6.60249 20.6725 4.79999 20.9263 4.79999 21.6744C4.79999 22.4225 6.11249 21.9544 7.60874 23.8269C9.10499 25.6994 10.4175 28.2281 10.4175 28.2281L11.1656 24.7631ZM13.9175 18.8044C13.9175 18.8044 14.5344 17.6144 14.4906 16.5906C14.4512 15.5669 13.6725 14.7881 14.04 14.3331C14.4075 13.8825 15.8031 15.0725 16.1312 16.1356C16.5337 17.4525 16.4987 18.065 16.4987 18.065L14.3681 19.8675L13.9175 18.8044ZM36.8425 8.93C36.8425 8.93 35.9412 8.27375 35.9806 6.26563C36.0069 4.95313 36.2694 3.92938 36.72 3.96875C37.1706 4.00813 37.2931 4.91375 37.7875 6.38813C38.2775 7.8625 39.7562 9.42438 39.7562 9.42438L36.8425 8.93ZM48.1606 13.3575C48.1606 13.3575 48.0381 10.5269 48.3225 9.0525C48.55 7.89313 49.2675 7.25 49.6744 7.53437C49.9281 7.71375 49.5519 8.06812 49.7969 10.4481C49.9237 11.6819 50.5756 16.2713 50.5756 16.2713L48.1606 13.3575ZM9.84874 39.2488C9.84874 39.2488 9.19249 38.7588 7.18436 38.1419C6.16499 37.8313 3.73249 37.5163 3.78061 38.1419C3.81999 38.6756 4.59874 38.6756 7.06186 39.9444C9.52061 41.2175 11.4894 43.3088 11.4894 43.1863C11.4894 43.0638 9.84874 39.2488 9.84874 39.2488Z" fill="#8E4D2F"/>
<path d="M8.25628 32.1C8.25628 32.9619 6.82128 35.1363 6.86066 35.7094C6.90003 36.2825 8.25628 38.5794 8.66316 39.2357C9.07441 39.8919 9.40253 41.4494 9.40253 41.4494C9.40253 41.4494 10.7544 43.3788 11.7825 44.3194C12.8063 45.2644 13.9569 46.1219 13.9569 46.1219C13.9569 46.1219 15.475 45.96 17.4832 46.2838C19.4913 46.6119 18.8044 47.0232 21.7182 47.1894C24.6319 47.3557 25.2707 46.9007 28.7532 46.4063C32.2357 45.9119 36.1513 45.2644 36.1513 45.2644C36.1513 45.2644 41.5107 42.2544 46.0738 37.6869C48.7775 34.9832 51.0919 29.8338 51.7875 28.7269C52.4832 27.62 52.89 25.8875 52.9294 25.4807C52.9688 25.0694 52.2075 22.0419 52.2075 20.7294C52.2075 19.4169 52.5663 18.7388 52.505 18.2357C52.4438 17.7019 49.7619 13.8082 48.6069 12.535C47.4607 11.2707 44.4244 8.55815 43.7244 8.84253L43.0288 9.13128C43.0288 9.13128 39.9532 7.85815 37.4507 7.85815C34.9482 7.85815 33.9638 8.3044 32.4894 8.34815C31.1769 8.38753 31.505 7.9369 30.5207 7.98065C29.7025 8.01565 26.955 9.48565 25.205 10.3825C23.6563 11.1788 20.4319 12.3688 19.2419 13.3925C18.0519 14.4163 15.4707 16.7963 15.2213 17.2075C14.9763 17.6188 14.7707 18.4807 14.7707 18.4807C14.7707 18.4807 12.3513 18.1132 11.8569 18.5638C11.3669 19.0144 10.2557 23.4463 9.59941 24.8375C8.94316 26.2288 7.05753 30.3719 7.34191 30.7C7.63941 31.0325 8.25628 32.1 8.25628 32.1Z" fill="#532D1D"/>
<path d="M14.3069 40.99C14.3069 40.99 12.9988 39.4413 12.2375 37.6956C11.3319 35.6306 11.0125 32.4019 11.3975 30.2713C11.8 28.0619 11.9575 26.9375 13.0775 24.2688C13.9438 22.2038 15.1425 20.655 16.6913 19.2331C17.2556 18.7169 18.0563 18.7956 19.71 17.2119C21.3638 15.6281 24.6538 12.4869 29.9869 11.5506C35.32 10.6144 37.0525 11.1044 39.4369 11.4719C41.1256 11.73 41.8913 12.815 43.0463 13.2438C44.1969 13.6769 45.2469 13.8563 46.5113 14.9063C47.4038 15.6456 48.1431 16.595 48.3619 17.6756C48.5763 18.7563 48.1038 19.3425 48.0644 19.71C48.0031 20.3269 49.4163 20.7775 49.1756 24.05C48.9613 27.0031 47.1588 33.6313 38.5138 39.4675C29.8688 45.3038 19.4256 43.5756 19.4256 43.5756C19.4256 43.5756 19.0844 42.0313 17.6319 41.1475C15.7419 40.01 14.3069 40.99 14.3069 40.99Z" fill="#FEFFFF"/>
<path d="M20.3225 19.8763C13.7075 25.205 14.3287 31.3781 14.3287 31.3781C14.3287 31.3781 11.1656 32.3144 11.4412 33.7056C11.6993 35.04 14.7618 34.0425 14.7618 34.0425L15.1206 35.5563C15.1206 35.5563 11.6906 36.6456 12.5262 38.1813C13.13 39.2925 18.4981 36.6325 18.4981 36.6325L43.7943 22.3919C43.7943 22.3919 48.8562 19.6138 47.7537 17.9863C46.9006 16.7263 45.0762 18.275 45.0762 18.275C45.0762 18.275 44.5512 17.6625 43.7462 17.1638C43.0112 16.7088 42.2368 16.245 42.2368 16.245C42.2368 16.245 44.3675 14.4469 43.1425 13.5106C41.9175 12.5744 40.115 15.1688 40.115 15.1688C40.115 15.1688 37.3237 14.285 35.0881 14.3594C32.8568 14.4294 30.4593 14.8756 30.4593 14.8756C30.4593 14.8756 30.3281 11.5725 28.6087 12.0231C27.0556 12.43 27.9393 15.5975 27.9393 15.5975C27.9393 15.5975 24.505 16.5075 20.3225 19.8763ZM22.9037 37.2144L20.7993 38.155C20.7993 38.155 19.3337 42.1494 20.8475 42.9413C22.3612 43.7331 23.9406 38.3256 23.9406 38.3256L22.9037 37.2144Z" fill="#E0E0E0"/>
<path d="M35.1494 33.6838L33.1807 36.195C33.1807 36.195 34.3575 38.5094 34.8607 39.3757C35.3638 40.2419 35.8713 40.6707 36.6632 40.2419C37.455 39.8088 37.5294 39.0913 37.0219 38.0807C36.5144 37.07 35.1494 33.6838 35.1494 33.6838Z" fill="#E1E1E1"/>
<path d="M24.4131 19.9244C17.0981 24.5138 14.9062 32.17 17.5006 36.4225C20.095 40.675 31.6712 39.3888 37.0569 35.4994C42.9062 31.2775 45.8331 26.2069 44.6081 21.7619C43.9387 19.3338 41.62 18.1613 39.1612 17.3694C35.1756 16.0919 29.3131 16.8531 24.4131 19.9244Z" fill="#B1B1B1"/>
<path d="M42.6394 46.17C41.8213 46.66 42.6394 47.9725 43.2169 49.4119C43.7944 50.8513 44.2013 52.26 45.0894 51.7175C45.925 51.2056 44.945 49.1975 44.5119 48.2613C44.0788 47.325 43.5363 45.6363 42.6394 46.17ZM48.8344 38.5357C47.7494 38.5357 47.8982 39.7607 47.5394 41.8475C47.1807 43.9388 46.9007 44.8663 48.0425 45.015C48.7907 45.1156 48.7907 43.5581 49.1232 41.4844C49.3638 39.9881 49.7007 38.5357 48.8344 38.5357ZM52.7238 33.6925C52.0063 33.7319 52.1638 35.4119 52.1857 37.6388C52.2032 39.2969 51.9538 41.3663 52.9469 41.2744C53.7694 41.1956 53.625 38.61 53.66 37.0219C53.7169 34.7119 53.8613 33.6313 52.7238 33.6925ZM32.8438 49.7706C32.4282 50.335 33.0582 51.2625 34.5719 52.365C35.9588 53.3756 37.1313 54.3338 37.6694 53.7344C38.4525 52.8638 37.2188 52.1244 35.8669 50.9956C34.5019 49.8538 33.4825 48.9044 32.8438 49.7706ZM22.1119 49.9894C21.6175 50.7813 22.9125 51.6869 24.4175 52.9425C25.7125 54.0231 27.0644 55.3706 27.8038 54.5263C28.2894 53.9706 27.095 52.7588 25.4982 51.4288C24.1988 50.3482 22.9169 48.69 22.1119 49.9894Z" fill="#532D1D"/>
</svg>
