<svg width="288" height="64" viewBox="0 0 288 64" fill="none" xmlns="http://www.w3.org/2000/svg">
<rect width="288" height="64" fill="white"/>
<circle cx="32" cy="32" r="32" fill="#F1F1F1"/>
<path d="M49.005 18.5988L52.5094 18.24C52.5094 18.24 53.3756 21.0662 54.1062 22.6325C54.8325 24.2031 56.1231 25.7125 56.1231 25.7125C56.1231 25.7125 55.7862 31.4831 54.9462 37.4244C54.1062 43.3656 51.8575 45.4131 51.1444 46.4588C50.2081 47.8281 48.3269 49.7006 47.5437 51.2144C46.7606 52.7281 46.2094 53.3931 45.8725 53.45C45.5356 53.5069 42.0706 54.4956 40.0537 54.8894C38.0369 55.2831 33.3556 56.4031 33.3556 56.4031C33.3556 56.4031 29.6237 55.5806 28.7269 55.4669C27.83 55.3531 26.6531 55.7469 26.3731 55.5238C26.0931 55.3006 23.5731 53.45 21.2762 52.4438C18.9794 51.4375 17.1287 51.21 16.9056 50.7638C16.6825 50.3175 16.2887 48.97 15.5056 47.9069C14.7225 46.8438 13.9656 46.1306 13.9656 46.1306L17.19 36.8688L49.005 18.5988ZM11.1656 24.7631C11.1656 24.7631 11.6337 23.2669 8.54499 21.6744C6.60249 20.6725 4.79999 20.9263 4.79999 21.6744C4.79999 22.4225 6.11249 21.9544 7.60874 23.8269C9.10499 25.6994 10.4175 28.2281 10.4175 28.2281L11.1656 24.7631ZM13.9175 18.8044C13.9175 18.8044 14.5344 17.6144 14.4906 16.5906C14.4512 15.5669 13.6725 14.7881 14.04 14.3331C14.4075 13.8825 15.8031 15.0725 16.1312 16.1356C16.5337 17.4525 16.4987 18.065 16.4987 18.065L14.3681 19.8675L13.9175 18.8044ZM36.8425 8.93C36.8425 8.93 35.9412 8.27375 35.9806 6.26563C36.0069 4.95313 36.2694 3.92938 36.72 3.96875C37.1706 4.00813 37.2931 4.91375 37.7875 6.38813C38.2775 7.8625 39.7562 9.42438 39.7562 9.42438L36.8425 8.93ZM48.1606 13.3575C48.1606 13.3575 48.0381 10.5269 48.3225 9.0525C48.55 7.89313 49.2675 7.25 49.6744 7.53437C49.9281 7.71375 49.5519 8.06812 49.7969 10.4481C49.9237 11.6819 50.5756 16.2713 50.5756 16.2713L48.1606 13.3575ZM9.84874 39.2488C9.84874 39.2488 9.19249 38.7588 7.18436 38.1419C6.16499 37.8313 3.73249 37.5163 3.78061 38.1419C3.81999 38.6756 4.59874 38.6756 7.06186 39.9444C9.52061 41.2175 11.4894 43.3088 11.4894 43.1863C11.4894 43.0638 9.84874 39.2488 9.84874 39.2488Z" fill="#8E4D2F"/>
<path d="M8.25628 32.1C8.25628 32.9619 6.82128 35.1363 6.86066 35.7094C6.90003 36.2825 8.25628 38.5794 8.66316 39.2357C9.07441 39.8919 9.40253 41.4494 9.40253 41.4494C9.40253 41.4494 10.7544 43.3788 11.7825 44.3194C12.8063 45.2644 13.9569 46.1219 13.9569 46.1219C13.9569 46.1219 15.475 45.96 17.4832 46.2838C19.4913 46.6119 18.8044 47.0232 21.7182 47.1894C24.6319 47.3557 25.2707 46.9007 28.7532 46.4063C32.2357 45.9119 36.1513 45.2644 36.1513 45.2644C36.1513 45.2644 41.5107 42.2544 46.0738 37.6869C48.7775 34.9832 51.0919 29.8338 51.7875 28.7269C52.4832 27.62 52.89 25.8875 52.9294 25.4807C52.9688 25.0694 52.2075 22.0419 52.2075 20.7294C52.2075 19.4169 52.5663 18.7388 52.505 18.2357C52.4438 17.7019 49.7619 13.8082 48.6069 12.535C47.4607 11.2707 44.4244 8.55815 43.7244 8.84253L43.0288 9.13128C43.0288 9.13128 39.9532 7.85815 37.4507 7.85815C34.9482 7.85815 33.9638 8.3044 32.4894 8.34815C31.1769 8.38753 31.505 7.9369 30.5207 7.98065C29.7025 8.01565 26.955 9.48565 25.205 10.3825C23.6563 11.1788 20.4319 12.3688 19.2419 13.3925C18.0519 14.4163 15.4707 16.7963 15.2213 17.2075C14.9763 17.6188 14.7707 18.4807 14.7707 18.4807C14.7707 18.4807 12.3513 18.1132 11.8569 18.5638C11.3669 19.0144 10.2557 23.4463 9.59941 24.8375C8.94316 26.2288 7.05753 30.3719 7.34191 30.7C7.63941 31.0325 8.25628 32.1 8.25628 32.1Z" fill="#532D1D"/>
<path d="M14.3069 40.99C14.3069 40.99 12.9988 39.4413 12.2375 37.6956C11.3319 35.6306 11.0125 32.4019 11.3975 30.2713C11.8 28.0619 11.9575 26.9375 13.0775 24.2688C13.9438 22.2038 15.1425 20.655 16.6913 19.2331C17.2556 18.7169 18.0563 18.7956 19.71 17.2119C21.3638 15.6281 24.6538 12.4869 29.9869 11.5506C35.32 10.6144 37.0525 11.1044 39.4369 11.4719C41.1256 11.73 41.8913 12.815 43.0463 13.2438C44.1969 13.6769 45.2469 13.8563 46.5113 14.9063C47.4038 15.6456 48.1431 16.595 48.3619 17.6756C48.5763 18.7563 48.1038 19.3425 48.0644 19.71C48.0031 20.3269 49.4163 20.7775 49.1756 24.05C48.9613 27.0031 47.1588 33.6313 38.5138 39.4675C29.8688 45.3038 19.4256 43.5756 19.4256 43.5756C19.4256 43.5756 19.0844 42.0313 17.6319 41.1475C15.7419 40.01 14.3069 40.99 14.3069 40.99Z" fill="#FEFFFF"/>
<path d="M20.3225 19.8763C13.7075 25.205 14.3287 31.3781 14.3287 31.3781C14.3287 31.3781 11.1656 32.3144 11.4412 33.7056C11.6993 35.04 14.7618 34.0425 14.7618 34.0425L15.1206 35.5563C15.1206 35.5563 11.6906 36.6456 12.5262 38.1813C13.13 39.2925 18.4981 36.6325 18.4981 36.6325L43.7943 22.3919C43.7943 22.3919 48.8562 19.6138 47.7537 17.9863C46.9006 16.7263 45.0762 18.275 45.0762 18.275C45.0762 18.275 44.5512 17.6625 43.7462 17.1638C43.0112 16.7088 42.2368 16.245 42.2368 16.245C42.2368 16.245 44.3675 14.4469 43.1425 13.5106C41.9175 12.5744 40.115 15.1688 40.115 15.1688C40.115 15.1688 37.3237 14.285 35.0881 14.3594C32.8568 14.4294 30.4593 14.8756 30.4593 14.8756C30.4593 14.8756 30.3281 11.5725 28.6087 12.0231C27.0556 12.43 27.9393 15.5975 27.9393 15.5975C27.9393 15.5975 24.505 16.5075 20.3225 19.8763ZM22.9037 37.2144L20.7993 38.155C20.7993 38.155 19.3337 42.1494 20.8475 42.9413C22.3612 43.7331 23.9406 38.3256 23.9406 38.3256L22.9037 37.2144Z" fill="#E0E0E0"/>
<path d="M35.1494 33.6838L33.1807 36.195C33.1807 36.195 34.3575 38.5094 34.8607 39.3757C35.3638 40.2419 35.8713 40.6707 36.6632 40.2419C37.455 39.8088 37.5294 39.0913 37.0219 38.0807C36.5144 37.07 35.1494 33.6838 35.1494 33.6838Z" fill="#E1E1E1"/>
<path d="M24.4131 19.9244C17.0981 24.5138 14.9062 32.17 17.5006 36.4225C20.095 40.675 31.6712 39.3888 37.0569 35.4994C42.9062 31.2775 45.8331 26.2069 44.6081 21.7619C43.9387 19.3338 41.62 18.1613 39.1612 17.3694C35.1756 16.0919 29.3131 16.8531 24.4131 19.9244Z" fill="#B1B1B1"/>
<path d="M42.6394 46.17C41.8213 46.66 42.6394 47.9725 43.2169 49.4119C43.7944 50.8513 44.2013 52.26 45.0894 51.7175C45.925 51.2056 44.945 49.1975 44.5119 48.2613C44.0788 47.325 43.5363 45.6363 42.6394 46.17ZM48.8344 38.5357C47.7494 38.5357 47.8982 39.7607 47.5394 41.8475C47.1807 43.9388 46.9007 44.8663 48.0425 45.015C48.7907 45.1156 48.7907 43.5581 49.1232 41.4844C49.3638 39.9881 49.7007 38.5357 48.8344 38.5357ZM52.7238 33.6925C52.0063 33.7319 52.1638 35.4119 52.1857 37.6388C52.2032 39.2969 51.9538 41.3663 52.9469 41.2744C53.7694 41.1956 53.625 38.61 53.66 37.0219C53.7169 34.7119 53.8613 33.6313 52.7238 33.6925ZM32.8438 49.7706C32.4282 50.335 33.0582 51.2625 34.5719 52.365C35.9588 53.3756 37.1313 54.3338 37.6694 53.7344C38.4525 52.8638 37.2188 52.1244 35.8669 50.9956C34.5019 49.8538 33.4825 48.9044 32.8438 49.7706ZM22.1119 49.9894C21.6175 50.7813 22.9125 51.6869 24.4175 52.9425C25.7125 54.0231 27.0644 55.3706 27.8038 54.5263C28.2894 53.9706 27.095 52.7588 25.4982 51.4288C24.1988 50.3482 22.9169 48.69 22.1119 49.9894Z" fill="#532D1D"/>
<path d="M83.9746 38.0947H90.1064C89.9834 40.1045 89.4297 41.8887 88.4453 43.4473C87.4746 45.0059 86.1143 46.2227 84.3643 47.0977C82.6279 47.9727 80.5361 48.4102 78.0889 48.4102C76.1748 48.4102 74.459 48.082 72.9414 47.4258C71.4238 46.7559 70.125 45.7988 69.0449 44.5547C67.9785 43.3105 67.165 41.8066 66.6045 40.043C66.0439 38.2793 65.7637 36.3037 65.7637 34.1162V32.0449C65.7637 29.8574 66.0508 27.8818 66.625 26.1182C67.2129 24.3408 68.0469 22.8301 69.127 21.5859C70.2207 20.3418 71.5264 19.3848 73.0439 18.7148C74.5615 18.0449 76.2568 17.71 78.1299 17.71C80.6182 17.71 82.7168 18.1611 84.4258 19.0635C86.1484 19.9658 87.4814 21.21 88.4248 22.7959C89.3818 24.3818 89.9561 26.1865 90.1475 28.21H83.9951C83.9268 27.0068 83.6875 25.9883 83.2773 25.1543C82.8672 24.3066 82.2451 23.6709 81.4111 23.2471C80.5908 22.8096 79.4971 22.5908 78.1299 22.5908C77.1045 22.5908 76.209 22.7822 75.4434 23.165C74.6777 23.5479 74.0352 24.1289 73.5156 24.9082C72.9961 25.6875 72.6064 26.6719 72.3467 27.8613C72.1006 29.0371 71.9775 30.418 71.9775 32.0039V34.1162C71.9775 35.6611 72.0938 37.0215 72.3262 38.1973C72.5586 39.3594 72.9141 40.3438 73.3926 41.1504C73.8848 41.9434 74.5137 42.5449 75.2793 42.9551C76.0586 43.3516 76.9951 43.5498 78.0889 43.5498C79.374 43.5498 80.4336 43.3447 81.2676 42.9346C82.1016 42.5244 82.7373 41.916 83.1748 41.1094C83.626 40.3027 83.8926 39.2979 83.9746 38.0947ZM118.674 32.373V33.7881C118.674 36.0576 118.366 38.0947 117.751 39.8994C117.136 41.7041 116.268 43.2422 115.146 44.5137C114.025 45.7715 112.686 46.7354 111.127 47.4053C109.582 48.0752 107.866 48.4102 105.979 48.4102C104.106 48.4102 102.391 48.0752 100.832 47.4053C99.2871 46.7354 97.9473 45.7715 96.8125 44.5137C95.6777 43.2422 94.7959 41.7041 94.167 39.8994C93.5518 38.0947 93.2441 36.0576 93.2441 33.7881V32.373C93.2441 30.0898 93.5518 28.0527 94.167 26.2617C94.7822 24.457 95.6504 22.9189 96.7715 21.6475C97.9062 20.376 99.2461 19.4053 100.791 18.7354C102.35 18.0654 104.065 17.7305 105.938 17.7305C107.825 17.7305 109.541 18.0654 111.086 18.7354C112.645 19.4053 113.984 20.376 115.105 21.6475C116.24 22.9189 117.115 24.457 117.73 26.2617C118.359 28.0527 118.674 30.0898 118.674 32.373ZM112.46 33.7881V32.332C112.46 30.7461 112.316 29.3516 112.029 28.1484C111.742 26.9453 111.318 25.9336 110.758 25.1133C110.197 24.293 109.514 23.6777 108.707 23.2676C107.9 22.8438 106.978 22.6318 105.938 22.6318C104.899 22.6318 103.977 22.8438 103.17 23.2676C102.377 23.6777 101.7 24.293 101.14 25.1133C100.593 25.9336 100.176 26.9453 99.8887 28.1484C99.6016 29.3516 99.458 30.7461 99.458 32.332V33.7881C99.458 35.3604 99.6016 36.7549 99.8887 37.9717C100.176 39.1748 100.6 40.1934 101.16 41.0273C101.721 41.8477 102.404 42.4697 103.211 42.8936C104.018 43.3174 104.94 43.5293 105.979 43.5293C107.019 43.5293 107.941 43.3174 108.748 42.8936C109.555 42.4697 110.231 41.8477 110.778 41.0273C111.325 40.1934 111.742 39.1748 112.029 37.9717C112.316 36.7549 112.46 35.3604 112.46 33.7881ZM140.412 38.0947H146.544C146.421 40.1045 145.867 41.8887 144.883 43.4473C143.912 45.0059 142.552 46.2227 140.802 47.0977C139.065 47.9727 136.974 48.4102 134.526 48.4102C132.612 48.4102 130.896 48.082 129.379 47.4258C127.861 46.7559 126.562 45.7988 125.482 44.5547C124.416 43.3105 123.603 41.8066 123.042 40.043C122.481 38.2793 122.201 36.3037 122.201 34.1162V32.0449C122.201 29.8574 122.488 27.8818 123.062 26.1182C123.65 24.3408 124.484 22.8301 125.564 21.5859C126.658 20.3418 127.964 19.3848 129.481 18.7148C130.999 18.0449 132.694 17.71 134.567 17.71C137.056 17.71 139.154 18.1611 140.863 19.0635C142.586 19.9658 143.919 21.21 144.862 22.7959C145.819 24.3818 146.394 26.1865 146.585 28.21H140.433C140.364 27.0068 140.125 25.9883 139.715 25.1543C139.305 24.3066 138.683 23.6709 137.849 23.2471C137.028 22.8096 135.935 22.5908 134.567 22.5908C133.542 22.5908 132.646 22.7822 131.881 23.165C131.115 23.5479 130.473 24.1289 129.953 24.9082C129.434 25.6875 129.044 26.6719 128.784 27.8613C128.538 29.0371 128.415 30.418 128.415 32.0039V34.1162C128.415 35.6611 128.531 37.0215 128.764 38.1973C128.996 39.3594 129.352 40.3438 129.83 41.1504C130.322 41.9434 130.951 42.5449 131.717 42.9551C132.496 43.3516 133.433 43.5498 134.526 43.5498C135.812 43.5498 136.871 43.3447 137.705 42.9346C138.539 42.5244 139.175 41.916 139.612 41.1094C140.063 40.3027 140.33 39.2979 140.412 38.0947ZM175.111 32.373V33.7881C175.111 36.0576 174.804 38.0947 174.188 39.8994C173.573 41.7041 172.705 43.2422 171.584 44.5137C170.463 45.7715 169.123 46.7354 167.564 47.4053C166.02 48.0752 164.304 48.4102 162.417 48.4102C160.544 48.4102 158.828 48.0752 157.27 47.4053C155.725 46.7354 154.385 45.7715 153.25 44.5137C152.115 43.2422 151.233 41.7041 150.604 39.8994C149.989 38.0947 149.682 36.0576 149.682 33.7881V32.373C149.682 30.0898 149.989 28.0527 150.604 26.2617C151.22 24.457 152.088 22.9189 153.209 21.6475C154.344 20.376 155.684 19.4053 157.229 18.7354C158.787 18.0654 160.503 17.7305 162.376 17.7305C164.263 17.7305 165.979 18.0654 167.523 18.7354C169.082 19.4053 170.422 20.376 171.543 21.6475C172.678 22.9189 173.553 24.457 174.168 26.2617C174.797 28.0527 175.111 30.0898 175.111 32.373ZM168.897 33.7881V32.332C168.897 30.7461 168.754 29.3516 168.467 28.1484C168.18 26.9453 167.756 25.9336 167.195 25.1133C166.635 24.293 165.951 23.6777 165.145 23.2676C164.338 22.8438 163.415 22.6318 162.376 22.6318C161.337 22.6318 160.414 22.8438 159.607 23.2676C158.814 23.6777 158.138 24.293 157.577 25.1133C157.03 25.9336 156.613 26.9453 156.326 28.1484C156.039 29.3516 155.896 30.7461 155.896 32.332V33.7881C155.896 35.3604 156.039 36.7549 156.326 37.9717C156.613 39.1748 157.037 40.1934 157.598 41.0273C158.158 41.8477 158.842 42.4697 159.648 42.8936C160.455 43.3174 161.378 43.5293 162.417 43.5293C163.456 43.5293 164.379 43.3174 165.186 42.8936C165.992 42.4697 166.669 41.8477 167.216 41.0273C167.763 40.1934 168.18 39.1748 168.467 37.9717C168.754 36.7549 168.897 35.3604 168.897 33.7881ZM203.843 18.1406V48H197.69L185.693 27.9844V48H179.541V18.1406H185.693L197.711 38.1768V18.1406H203.843ZM225.684 18.1406H231.815V37.8691C231.815 40.166 231.323 42.1006 230.339 43.6729C229.368 45.2451 228.021 46.4277 226.299 47.2207C224.59 48.0137 222.621 48.4102 220.393 48.4102C218.164 48.4102 216.182 48.0137 214.445 47.2207C212.723 46.4277 211.369 45.2451 210.385 43.6729C209.414 42.1006 208.929 40.166 208.929 37.8691V18.1406H215.081V37.8691C215.081 39.209 215.293 40.3027 215.717 41.1504C216.141 41.998 216.749 42.6201 217.542 43.0166C218.349 43.4131 219.299 43.6113 220.393 43.6113C221.514 43.6113 222.464 43.4131 223.243 43.0166C224.036 42.6201 224.638 41.998 225.048 41.1504C225.472 40.3027 225.684 39.209 225.684 37.8691V18.1406ZM250.231 18.1406V48H244.1V18.1406H250.231ZM259.419 18.1406V22.96H235.056V18.1406H259.419ZM278.143 40.1865C278.143 39.6533 278.061 39.1748 277.896 38.751C277.746 38.3135 277.459 37.917 277.035 37.5615C276.611 37.1924 276.017 36.8301 275.251 36.4746C274.485 36.1191 273.494 35.75 272.277 35.3672C270.924 34.9297 269.639 34.4375 268.422 33.8906C267.219 33.3438 266.152 32.708 265.223 31.9834C264.307 31.2451 263.582 30.3906 263.049 29.4199C262.529 28.4492 262.27 27.3213 262.27 26.0361C262.27 24.792 262.543 23.6641 263.09 22.6523C263.637 21.627 264.402 20.752 265.387 20.0273C266.371 19.2891 267.533 18.7217 268.873 18.3252C270.227 17.9287 271.71 17.7305 273.323 17.7305C275.524 17.7305 277.445 18.127 279.086 18.9199C280.727 19.7129 281.998 20.7998 282.9 22.1807C283.816 23.5615 284.274 25.1406 284.274 26.918H278.163C278.163 26.043 277.979 25.2773 277.609 24.6211C277.254 23.9512 276.707 23.4248 275.969 23.042C275.244 22.6592 274.328 22.4678 273.221 22.4678C272.154 22.4678 271.266 22.6318 270.555 22.96C269.844 23.2744 269.311 23.7051 268.955 24.252C268.6 24.7852 268.422 25.3867 268.422 26.0566C268.422 26.5625 268.545 27.0205 268.791 27.4307C269.051 27.8408 269.434 28.2236 269.939 28.5791C270.445 28.9346 271.067 29.2695 271.806 29.584C272.544 29.8984 273.398 30.2061 274.369 30.5068C275.996 30.999 277.425 31.5527 278.655 32.168C279.899 32.7832 280.938 33.4736 281.772 34.2393C282.606 35.0049 283.235 35.873 283.659 36.8438C284.083 37.8145 284.295 38.915 284.295 40.1455C284.295 41.4443 284.042 42.6064 283.536 43.6318C283.03 44.6572 282.299 45.5254 281.342 46.2363C280.385 46.9473 279.243 47.4873 277.917 47.8564C276.591 48.2256 275.107 48.4102 273.467 48.4102C271.99 48.4102 270.534 48.2188 269.099 47.8359C267.663 47.4395 266.357 46.8447 265.182 46.0518C264.02 45.2588 263.09 44.2471 262.393 43.0166C261.695 41.7861 261.347 40.3301 261.347 38.6484H267.52C267.52 39.5781 267.663 40.3643 267.95 41.0068C268.237 41.6494 268.641 42.1689 269.16 42.5654C269.693 42.9619 270.322 43.249 271.047 43.4268C271.785 43.6045 272.592 43.6934 273.467 43.6934C274.533 43.6934 275.408 43.543 276.092 43.2422C276.789 42.9414 277.302 42.5244 277.63 41.9912C277.972 41.458 278.143 40.8564 278.143 40.1865Z" fill="#4E4E4E"/>
</svg>
